<svg width="87" height="87" viewBox="0 0 87 87" fill="none" xmlns="http://www.w3.org/2000/svg">
<circle cx="43.6092" cy="43.6541" r="43.315" fill="#382931"/>
<path fill-rule="evenodd" clip-rule="evenodd" d="M42.6093 55.9876C49.9731 55.9876 55.9426 50.018 55.9426 42.6542C55.9426 35.2904 49.9731 29.3209 42.6093 29.3209C35.2455 29.3209 29.276 35.2904 29.276 42.6542C29.276 50.018 35.2455 55.9876 42.6093 55.9876ZM42.6093 59.3209C51.814 59.3209 59.276 51.859 59.276 42.6542C59.276 33.4495 51.814 25.9875 42.6093 25.9875C33.4045 25.9875 25.9426 33.4495 25.9426 42.6542C25.9426 51.859 33.4045 59.3209 42.6093 59.3209Z" fill="#AE3C79"/>
<path d="M40.9426 34.321C40.9426 33.4005 41.6888 32.6543 42.6093 32.6543C43.5298 32.6543 44.276 33.4005 44.276 34.321C47.0374 34.321 49.276 36.5595 49.276 39.321C49.276 40.2414 48.5298 40.9876 47.6093 40.9876C46.6888 40.9876 45.9426 40.2414 45.9426 39.321C45.9426 38.4005 45.1964 37.6543 44.276 37.6543H40.515C39.8307 37.6543 39.276 38.209 39.276 38.8933C39.276 39.4266 39.6172 39.9001 40.1232 40.0688L46.1495 42.0775C48.0166 42.6999 49.276 44.4472 49.276 46.4153C49.276 48.9405 47.2288 50.9876 44.7036 50.9876H44.276C44.276 51.9081 43.5298 52.6543 42.6093 52.6543C41.6888 52.6543 40.9426 51.9081 40.9426 50.9876C38.1812 50.9876 35.9426 48.7491 35.9426 45.9876C35.9426 45.0672 36.6888 44.321 37.6093 44.321C38.5298 44.321 39.276 45.0672 39.276 45.9876C39.276 46.9081 40.0222 47.6543 40.9426 47.6543H44.7036C45.3879 47.6543 45.9426 47.0996 45.9426 46.4153C45.9426 45.882 45.6014 45.4085 45.0954 45.2398L39.0691 43.231C37.202 42.6087 35.9426 40.8614 35.9426 38.8933C35.9426 36.3681 37.9897 34.321 40.515 34.321H40.9426Z" fill="#AE3C79"/>
</svg>
