<svg width="87" height="87" viewBox="0 0 87 87" fill="none" xmlns="http://www.w3.org/2000/svg">
<circle cx="43.6089" cy="43.4681" r="43.315" fill="#45341B"/>
<g clip-path="url(#clip0_31_103)">
<path fill-rule="evenodd" clip-rule="evenodd" d="M22.6094 45.8015C22.6094 43.0401 24.848 40.8015 27.6094 40.8015H40.9427C43.7041 40.8015 45.9427 43.0401 45.9427 45.8015V49.1348C45.9427 50.9758 44.4503 52.4682 42.6094 52.4682H35.9427V49.1348H41.776C42.2363 49.1348 42.6094 48.7618 42.6094 48.3015V45.8015C42.6094 44.881 41.8632 44.1348 40.9427 44.1348H27.6094C26.6889 44.1348 25.9427 44.881 25.9427 45.8015V47.4682C25.9427 48.3887 26.6889 49.1348 27.6094 49.1348H29.276V52.4682H27.6094C24.848 52.4682 22.6094 50.2296 22.6094 47.4682V45.8015Z" fill="#A27D47"/>
<path fill-rule="evenodd" clip-rule="evenodd" d="M42.6094 36.135C42.6094 35.0304 43.5048 34.135 44.6094 34.135H52.9846C54.2309 34.135 55.4323 34.6005 56.3533 35.4402L60.9781 39.657C62.0172 40.6044 62.6094 41.9456 62.6094 43.3518V47.4683C62.6094 50.2298 60.3708 52.4683 57.6094 52.4683H55.9427V49.135H57.6094C58.5298 49.135 59.276 48.3888 59.276 47.4683V43.3518C59.276 42.883 59.0787 42.436 58.7323 42.1202L54.1075 37.9034C53.8005 37.6235 53.4 37.4683 52.9846 37.4683H47.6094C46.6889 37.4683 45.9427 38.2145 45.9427 39.135V48.3017C45.9427 48.7619 46.3158 49.135 46.776 49.135H49.276V52.4683H42.6094V36.135Z" fill="#A27D47"/>
<path fill-rule="evenodd" clip-rule="evenodd" d="M32.6094 52.4682C33.5298 52.4682 34.276 51.722 34.276 50.8015C34.276 49.881 33.5298 49.1348 32.6094 49.1348C31.6889 49.1348 30.9427 49.881 30.9427 50.8015C30.9427 51.722 31.6889 52.4682 32.6094 52.4682ZM32.6094 55.8015C35.3708 55.8015 37.6094 53.5629 37.6094 50.8015C37.6094 48.0401 35.3708 45.8015 32.6094 45.8015C29.848 45.8015 27.6094 48.0401 27.6094 50.8015C27.6094 53.5629 29.848 55.8015 32.6094 55.8015Z" fill="#A27D47"/>
<path fill-rule="evenodd" clip-rule="evenodd" d="M52.6094 52.4682C53.5298 52.4682 54.276 51.722 54.276 50.8015C54.276 49.881 53.5298 49.1348 52.6094 49.1348C51.6889 49.1348 50.9427 49.881 50.9427 50.8015C50.9427 51.722 51.6889 52.4682 52.6094 52.4682ZM52.6094 55.8015C55.3708 55.8015 57.6094 53.5629 57.6094 50.8015C57.6094 48.0401 55.3708 45.8015 52.6094 45.8015C49.848 45.8015 47.6094 48.0401 47.6094 50.8015C47.6094 53.5629 49.848 55.8015 52.6094 55.8015Z" fill="#A27D47"/>
</g>
<defs>
<clipPath id="clip0_31_103">
<rect width="40" height="40" fill="white" transform="translate(22.6094 22.4683)"/>
</clipPath>
</defs>
</svg>
