<svg width="87" height="87" viewBox="0 0 87 87" fill="none" xmlns="http://www.w3.org/2000/svg">
<circle cx="43.6089" cy="43.6541" r="43.315" fill="#293340"/>
<path d="M57.2295 37.9143L54.9495 31.0726C54.6188 30.0768 53.9826 29.2105 53.1314 28.5968C52.2802 27.9832 51.2572 27.6534 50.2079 27.6543H35.0112C33.9619 27.6534 32.9389 27.9832 32.0877 28.5968C31.2365 29.2105 30.6003 30.0768 30.2695 31.0726L27.9895 37.9143C27.3839 38.1684 26.8667 38.5956 26.5026 39.1422C26.1386 39.6889 25.9439 40.3308 25.9429 40.9876V49.321C25.9429 50.576 26.6479 51.6576 27.6745 52.226C27.6529 52.336 27.6095 52.436 27.6095 52.551V55.9876C27.6095 56.4297 27.7851 56.8536 28.0977 57.1661C28.4103 57.4787 28.8342 57.6543 29.2762 57.6543H30.9429C31.3849 57.6543 31.8088 57.4787 32.1214 57.1661C32.4339 56.8536 32.6095 56.4297 32.6095 55.9876V52.6543H52.6095V55.9876C52.6095 56.4297 52.7851 56.8536 53.0977 57.1661C53.4103 57.4787 53.8342 57.6543 54.2762 57.6543H55.9429C56.3849 57.6543 56.8088 57.4787 57.1214 57.1661C57.4339 56.8536 57.6095 56.4297 57.6095 55.9876V52.551C57.6095 52.436 57.5662 52.3343 57.5445 52.226C58.0669 51.9412 58.5031 51.5214 58.8078 51.0103C59.1124 50.4993 59.2742 49.9159 59.2762 49.321V40.9876C59.2762 39.606 58.4295 38.4193 57.2295 37.9143ZM29.2762 49.321V40.9876H55.9429L55.9462 49.321H29.2762ZM35.0112 30.9876H50.2062C50.9245 30.9876 51.5612 31.4443 51.7879 32.1276L53.6312 37.6543H31.5879L33.4295 32.1276C33.5401 31.7956 33.7524 31.5068 34.0363 31.3022C34.3202 31.0976 34.6613 30.9875 35.0112 30.9876Z" fill="#325AC0"/>
<path d="M33.4429 47.6543C34.8236 47.6543 35.9429 46.535 35.9429 45.1543C35.9429 43.7736 34.8236 42.6543 33.4429 42.6543C32.0622 42.6543 30.9429 43.7736 30.9429 45.1543C30.9429 46.535 32.0622 47.6543 33.4429 47.6543Z" fill="#325AC0"/>
<path d="M51.7764 47.6543C53.1571 47.6543 54.2764 46.535 54.2764 45.1543C54.2764 43.7736 53.1571 42.6543 51.7764 42.6543C50.3957 42.6543 49.2764 43.7736 49.2764 45.1543C49.2764 46.535 50.3957 47.6543 51.7764 47.6543Z" fill="#325AC0"/>
</svg>
